# Blender v2.91.0 OBJ File: ''
# www.blender.org
mtllib shield.mtl
o Cube_Cube.001
v -0.224000 -1.000000 0.040000
v -1.000000 1.000000 0.100000
v -0.224000 -1.000000 -0.040000
v -1.000000 1.000000 -0.100000
v 0.224000 -1.000000 0.040000
v 1.000000 1.000000 0.100000
v 0.224000 -1.000000 -0.040000
v 1.000000 1.000000 -0.100000
v -0.224000 -1.000000 0.000000
v -0.807292 -0.346596 0.080729
v -1.000000 1.000000 0.000000
v -0.807292 -0.346596 -0.080729
v 0.000000 -1.000000 -0.085680
v -0.028693 1.102896 -0.251063
v 0.807292 -0.346596 -0.080729
v 0.224000 -1.000000 0.000000
v 1.000000 1.000000 0.000000
v 0.807292 -0.346596 0.080729
v 0.000000 -1.000000 0.085680
v -0.027429 1.102718 0.258033
v -0.027429 1.102718 0.003497
v 0.000000 -1.000000 0.000000
v 0.000000 -0.346596 0.274479
v 0.807292 -0.346596 0.000000
v 0.000000 -0.346596 -0.274479
v -0.807292 -0.346596 0.000000
v -0.224000 -1.000000 0.020000
v -1.000000 0.500000 0.100000
v -1.000000 1.000000 -0.050000
v -0.436846 -0.795385 -0.048539
v -0.144000 -1.000000 -0.060480
v 0.270000 0.876301 -0.120000
v 0.436846 -0.795385 -0.048539
v 0.224000 -1.000000 -0.020000
v 1.000000 1.000000 0.050000
v 0.436846 -0.795385 0.048539
v 0.144000 -1.000000 0.060480
v -0.270000 0.876301 0.120000
v -0.224000 -1.000000 -0.020000
v -0.436846 -0.795385 0.048539
v -1.000000 1.000000 0.050000
v -1.000000 0.500000 -0.100000
v 0.144000 -1.000000 -0.060480
v -0.270000 0.876301 -0.120000
v 1.000000 0.500000 -0.100000
v 0.224000 -1.000000 0.020000
v 1.000000 1.000000 -0.050000
v 1.000000 0.500000 0.100000
v -0.144000 -1.000000 0.060480
v 0.270000 0.876301 0.120000
v -0.027429 1.102718 0.053497
v -0.027429 1.102718 -0.046503
v 0.270000 0.876301 0.000000
v -0.270000 0.876301 0.000000
v 0.000000 -1.000000 0.020000
v 0.000000 -1.000000 -0.020000
v -0.160000 -1.000000 0.000000
v 0.160000 -1.000000 0.000000
v -0.403646 -0.346596 0.193750
v 0.403646 -0.346596 0.193750
v 0.000000 -0.795385 0.148528
v 0.000000 0.500000 0.340000
v 0.807292 -0.346596 0.040365
v 0.807292 -0.346596 -0.040365
v 0.436846 -0.795385 0.000000
v 1.000000 0.500000 0.000000
v 0.403646 -0.346596 -0.193750
v -0.403646 -0.346596 -0.193750
v 0.000000 -0.795385 -0.148528
v 0.000000 0.500000 -0.340000
v -0.807292 -0.346596 -0.040365
v -0.807292 -0.346596 0.040365
v -0.436846 -0.795385 0.000000
v -1.000000 0.500000 0.000000
v -1.000000 0.500000 0.050000
v -0.436846 -0.795385 0.024269
v -0.436846 -0.795385 -0.024269
v -0.500000 0.500000 -0.240000
v -0.218423 -0.795385 -0.104843
v 0.218423 -0.795385 -0.104843
v 1.000000 0.500000 -0.050000
v 0.436846 -0.795385 -0.024269
v 0.436846 -0.795385 0.024269
v 0.500000 0.500000 0.240000
v 0.218423 -0.795385 0.104843
v -0.218423 -0.795385 0.104843
v 0.160000 -1.000000 -0.020000
v -0.160000 -1.000000 -0.020000
v -0.160000 -1.000000 0.020000
v -0.270000 0.876301 -0.025000
v 0.270000 0.876301 -0.025000
v 0.270000 0.876301 0.025000
v -0.270000 0.876301 0.025000
v 0.160000 -1.000000 0.020000
v -0.500000 0.500000 0.240000
v 1.000000 0.500000 0.050000
v 0.500000 0.500000 -0.240000
v -1.000000 0.500000 -0.050000
vt 0.562500 0.187500
vt 0.625000 0.187500
vt 0.625000 0.250000
vt 0.562500 0.250000
vt 0.562500 0.437500
vt 0.625000 0.437500
vt 0.625000 0.500000
vt 0.562500 0.500000
vt 0.562500 0.687500
vt 0.625000 0.687500
vt 0.625000 0.750000
vt 0.562500 0.750000
vt 0.562500 0.937500
vt 0.625000 0.937500
vt 0.625000 1.000000
vt 0.562500 1.000000
vt 0.312500 0.687500
vt 0.375000 0.687500
vt 0.375000 0.750000
vt 0.312500 0.750000
vt 0.812500 0.687500
vt 0.875000 0.687500
vt 0.875000 0.750000
vt 0.812500 0.750000
vt 0.687500 0.687500
vt 0.750000 0.687500
vt 0.750000 0.750000
vt 0.687500 0.750000
vt 0.687500 0.562500
vt 0.750000 0.562500
vt 0.750000 0.625000
vt 0.687500 0.625000
vt 0.812500 0.562500
vt 0.875000 0.562500
vt 0.875000 0.625000
vt 0.812500 0.625000
vt 0.187500 0.687500
vt 0.250000 0.687500
vt 0.250000 0.750000
vt 0.187500 0.750000
vt 0.187500 0.562500
vt 0.250000 0.562500
vt 0.250000 0.625000
vt 0.187500 0.625000
vt 0.312500 0.562500
vt 0.375000 0.562500
vt 0.375000 0.625000
vt 0.312500 0.625000
vt 0.437500 0.937500
vt 0.500000 0.937500
vt 0.500000 1.000000
vt 0.437500 1.000000
vt 0.437500 0.812500
vt 0.500000 0.812500
vt 0.500000 0.875000
vt 0.437500 0.875000
vt 0.562500 0.812500
vt 0.625000 0.812500
vt 0.625000 0.875000
vt 0.562500 0.875000
vt 0.437500 0.687500
vt 0.500000 0.687500
vt 0.500000 0.750000
vt 0.437500 0.750000
vt 0.437500 0.562500
vt 0.500000 0.562500
vt 0.500000 0.625000
vt 0.437500 0.625000
vt 0.562500 0.562500
vt 0.625000 0.562500
vt 0.625000 0.625000
vt 0.562500 0.625000
vt 0.437500 0.437500
vt 0.500000 0.437500
vt 0.500000 0.500000
vt 0.437500 0.500000
vt 0.437500 0.312500
vt 0.500000 0.312500
vt 0.500000 0.375000
vt 0.437500 0.375000
vt 0.562500 0.312500
vt 0.625000 0.312500
vt 0.625000 0.375000
vt 0.562500 0.375000
vt 0.437500 0.187500
vt 0.500000 0.187500
vt 0.500000 0.250000
vt 0.437500 0.250000
vt 0.437500 0.062500
vt 0.500000 0.062500
vt 0.500000 0.125000
vt 0.437500 0.125000
vt 0.562500 0.062500
vt 0.625000 0.062500
vt 0.625000 0.125000
vt 0.562500 0.125000
vt 0.500000 0.000000
vt 0.562500 0.000000
vt 0.625000 0.000000
vt 0.375000 0.062500
vt 0.375000 0.125000
vt 0.375000 0.000000
vt 0.437500 0.000000
vt 0.375000 0.187500
vt 0.375000 0.250000
vt 0.375000 0.312500
vt 0.375000 0.375000
vt 0.375000 0.437500
vt 0.375000 0.500000
vt 0.375000 0.812500
vt 0.375000 0.875000
vt 0.375000 0.937500
vt 0.375000 1.000000
vt 0.250000 0.500000
vt 0.312500 0.500000
vt 0.125000 0.562500
vt 0.125000 0.625000
vt 0.125000 0.500000
vt 0.187500 0.500000
vt 0.125000 0.687500
vt 0.125000 0.750000
vt 0.750000 0.500000
vt 0.812500 0.500000
vt 0.875000 0.500000
vt 0.687500 0.500000
vn -1.0000 0.0000 0.0000
vn 0.1111 0.1634 -0.9803
vn 1.0000 0.0000 0.0000
vn -0.1111 0.1634 0.9803
vn 0.0000 -1.0000 0.0000
vn 0.1671 0.9859 0.0000
vn 0.6057 0.7957 0.0000
vn -0.2521 -0.2810 0.9260
vn 0.1891 -0.2653 0.9454
vn 0.3460 0.2760 0.8967
vn 0.7712 -0.6366 0.0000
vn 0.2521 -0.2810 -0.9260
vn -0.1891 -0.2653 -0.9454
vn -0.3598 0.2649 -0.8946
vn -0.7712 -0.6366 0.0000
vn -0.9751 -0.2219 0.0000
vn -0.6930 -0.7209 0.0000
vn -0.1956 -0.0757 -0.9778
vn -0.2687 -0.0830 -0.9596
vn -0.1111 0.1634 -0.9803
vn -0.1793 -0.2797 -0.9432
vn -0.2387 -0.2874 -0.9276
vn -0.2521 -0.2810 -0.9260
vn 0.2387 -0.2874 -0.9276
vn 0.1793 -0.2797 -0.9432
vn 0.1891 -0.2653 -0.9454
vn 0.9751 -0.2219 0.0000
vn 0.6930 -0.7209 0.0000
vn 0.1956 -0.0757 0.9778
vn 0.2687 -0.0830 0.9596
vn 0.1111 0.1634 0.9803
vn 0.1793 -0.2797 0.9432
vn 0.2387 -0.2874 0.9276
vn 0.2521 -0.2810 0.9260
vn -0.2387 -0.2874 0.9276
vn -0.1793 -0.2797 0.9432
vn -0.1891 -0.2653 0.9454
vn -0.6823 0.7310 0.0000
vn -0.6829 0.7305 0.0033
vn -0.1671 0.9859 0.0000
vn 0.6054 0.7959 -0.0021
vn -0.2687 -0.0830 0.9596
vn -0.1956 -0.0757 0.9778
vn -0.3657 0.2600 0.8937
vn 0.2687 -0.0830 -0.9596
vn 0.1956 -0.0757 -0.9778
vn 0.3395 0.2812 -0.8976
usemtl None
f 98/1/1 29/2/1 4/3/1 42/4/1
f 97/5/2 32/6/2 8/7/2 45/8/2
f 96/9/3 35/10/3 6/11/3 48/12/3
f 95/13/4 38/14/4 2/15/4 28/16/4
f 94/17/5 46/18/5 5/19/5 37/20/5
f 93/21/6 41/22/6 2/23/6 38/24/6
f 92/25/7 51/26/7 20/27/7 50/28/7
f 91/29/7 52/30/7 21/31/7 53/32/7
f 90/33/6 29/34/6 11/35/6 54/36/6
f 89/37/5 55/38/5 19/39/5 49/40/5
f 88/41/5 56/42/5 22/43/5 57/44/5
f 87/45/5 34/46/5 16/47/5 58/48/5
f 86/49/8 59/50/8 10/51/8 40/52/8
f 85/53/9 60/54/9 23/55/9 61/56/9
f 84/57/10 50/58/10 20/59/10 62/60/10
f 83/61/11 63/62/11 18/63/11 36/64/11
f 82/65/11 64/66/11 24/67/11 65/68/11
f 81/69/3 47/70/3 17/71/3 66/72/3
f 80/73/12 67/74/12 15/75/12 33/76/12
f 79/77/13 68/78/13 25/79/13 69/80/13
f 78/81/14 44/82/14 14/83/14 70/84/14
f 77/85/15 71/86/15 12/87/15 30/88/15
f 76/89/15 72/90/15 26/91/15 73/92/15
f 75/93/1 41/94/1 11/95/1 74/96/1
f 72/90/16 75/93/16 74/96/16 26/91/16
f 10/97/16 28/98/16 75/93/16 72/90/16
f 28/98/1 2/99/1 41/94/1 75/93/1
f 27/100/17 76/89/17 73/92/17 9/101/17
f 1/102/17 40/103/17 76/89/17 27/100/17
f 40/103/15 10/97/15 72/90/15 76/89/15
f 39/104/17 77/85/17 30/88/17 3/105/17
f 9/101/17 73/92/17 77/85/17 39/104/17
f 73/92/15 26/91/15 71/86/15 77/85/15
f 68/78/18 78/81/18 70/84/18 25/79/18
f 12/87/19 42/4/19 78/81/19 68/78/19
f 42/4/20 4/3/20 44/82/20 78/81/20
f 31/106/21 79/77/21 69/80/21 13/107/21
f 3/105/22 30/88/22 79/77/22 31/106/22
f 30/88/23 12/87/23 68/78/23 79/77/23
f 43/108/24 80/73/24 33/76/24 7/109/24
f 13/107/25 69/80/25 80/73/25 43/108/25
f 69/80/26 25/79/26 67/74/26 80/73/26
f 64/66/27 81/69/27 66/72/27 24/67/27
f 15/75/27 45/8/27 81/69/27 64/66/27
f 45/8/3 8/7/3 47/70/3 81/69/3
f 34/46/28 82/65/28 65/68/28 16/47/28
f 7/109/28 33/76/28 82/65/28 34/46/28
f 33/76/11 15/75/11 64/66/11 82/65/11
f 46/18/28 83/61/28 36/64/28 5/19/28
f 16/47/28 65/68/28 83/61/28 46/18/28
f 65/68/11 24/67/11 63/62/11 83/61/11
f 60/54/29 84/57/29 62/60/29 23/55/29
f 18/63/30 48/12/30 84/57/30 60/54/30
f 48/12/31 6/11/31 50/58/31 84/57/31
f 37/110/32 85/53/32 61/56/32 19/111/32
f 5/19/33 36/64/33 85/53/33 37/110/33
f 36/64/34 18/63/34 60/54/34 85/53/34
f 49/112/35 86/49/35 40/52/35 1/113/35
f 19/111/36 61/56/36 86/49/36 49/112/36
f 61/56/37 23/55/37 59/50/37 86/49/37
f 56/42/5 87/45/5 58/48/5 22/43/5
f 13/114/5 43/115/5 87/45/5 56/42/5
f 43/115/5 7/109/5 34/46/5 87/45/5
f 39/116/5 88/41/5 57/44/5 9/117/5
f 3/118/5 31/119/5 88/41/5 39/116/5
f 31/119/5 13/114/5 56/42/5 88/41/5
f 27/120/5 89/37/5 49/40/5 1/121/5
f 9/117/5 57/44/5 89/37/5 27/120/5
f 57/44/5 22/43/5 55/38/5 89/37/5
f 52/30/38 90/33/38 54/36/38 21/31/38
f 14/122/39 44/123/39 90/33/39 52/30/39
f 44/123/6 4/124/6 29/34/6 90/33/6
f 47/70/40 91/29/40 53/32/40 17/71/40
f 8/7/40 32/125/40 91/29/40 47/70/40
f 32/125/41 14/122/41 52/30/41 91/29/41
f 35/10/40 92/25/40 50/28/40 6/11/40
f 17/71/40 53/32/40 92/25/40 35/10/40
f 53/32/7 21/31/7 51/26/7 92/25/7
f 51/26/38 93/21/38 38/24/38 20/27/38
f 21/31/38 54/36/38 93/21/38 51/26/38
f 54/36/6 11/35/6 41/22/6 93/21/6
f 55/38/5 94/17/5 37/20/5 19/39/5
f 22/43/5 58/48/5 94/17/5 55/38/5
f 58/48/5 16/47/5 46/18/5 94/17/5
f 59/50/42 95/13/42 28/16/42 10/51/42
f 23/55/43 62/60/43 95/13/43 59/50/43
f 62/60/44 20/59/44 38/14/44 95/13/44
f 63/62/27 96/9/27 48/12/27 18/63/27
f 24/67/27 66/72/27 96/9/27 63/62/27
f 66/72/3 17/71/3 35/10/3 96/9/3
f 67/74/45 97/5/45 45/8/45 15/75/45
f 25/79/46 70/84/46 97/5/46 67/74/46
f 70/84/47 14/83/47 32/6/47 97/5/47
f 71/86/16 98/1/16 42/4/16 12/87/16
f 26/91/16 74/96/16 98/1/16 71/86/16
f 74/96/1 11/95/1 29/2/1 98/1/1
