# Blender v3.3.0 OBJ File: ''
# www.blender.org
mtllib crystal2.mtl
o Icosphere
v 0.664684 2.325543 0.598490
v -0.412484 3.042974 -0.586428
v -0.108271 4.142495 -0.672096
v -0.363800 2.325542 0.817095
v -0.029342 4.333227 -1.119018
v -0.889525 2.325542 -0.093488
v -0.331235 3.896512 -0.287281
v -0.035812 2.156474 -1.022296
v -0.256321 3.617863 -0.416576
v 0.924750 2.156452 -0.594631
v -0.419399 3.019266 -0.558293
v -0.053380 5.327261 0.385883
v 0.978147 0.000000 -0.207916
v -0.355968 3.001063 -0.591316
v -0.082694 3.041172 -0.691967
v 0.669134 0.000000 -0.743142
v 0.500000 0.000000 0.866025
v 0.369555 2.894028 -0.790801
v 0.913546 0.000000 0.406736
v 0.366464 2.955652 -0.767809
v 0.383844 3.851836 -0.268409
v -0.669134 0.000000 0.743142
v -0.104529 0.000000 0.994522
v -0.388455 3.027714 -0.568319
v -0.913546 0.000000 -0.406736
v 0.184976 3.917884 -0.320717
v -0.978147 0.000000 0.207916
v -0.130355 3.940541 -0.356161
v 0.104529 0.000000 -0.994522
v 0.036888 3.949088 -0.369531
v -0.500000 0.000000 -0.866025
v 0.996142 2.564759 -0.058502
v 0.176855 2.733836 0.832059
v -0.736683 2.733827 0.425324
v -0.632157 2.733836 -0.569190
v 0.496145 2.564759 -0.924523
v 0.337309 4.550664 0.737664
v 0.401916 4.550650 0.123018
v -0.267214 4.550663 0.866156
v -0.522846 4.423402 -0.054950
v -0.162687 4.550664 -0.128353
v -0.331235 3.896512 -0.287281
v -0.419399 3.019266 -0.558293
v -0.388455 3.027714 -0.568319
v -0.130355 3.940541 -0.356161
v -0.082694 3.041173 -0.691967
v -0.256321 3.617864 -0.416576
v -0.355968 3.001064 -0.591316
v -0.355968 3.001064 -0.591316
v 0.366464 2.955653 -0.767809
v 0.383844 3.851836 -0.268409
v 0.383844 3.851836 -0.268410
v 0.036888 3.949088 -0.369531
v 0.036888 3.949088 -0.369531
v 0.369555 2.894028 -0.790801
v 0.369554 2.894029 -0.790801
v -0.082694 3.041173 -0.691967
vt 0.181819 0.314921
vt 0.272728 0.314921
vt 0.227273 0.393651
vt 0.000000 0.314921
vt 0.090910 0.314921
vt 0.045455 0.393651
vt 0.727273 0.314921
vt 0.818182 0.314921
vt 0.772727 0.393651
vt 0.562251 0.344013
vt 0.545455 0.314921
vt 0.636364 0.314921
vt 0.590909 0.393651
vt 0.579326 0.373588
vt 0.607207 0.365321
vt 0.593417 0.358176
vt 0.609580 0.331955
vt 0.605304 0.333286
vt 0.600407 0.333452
vt 0.600407 0.333452
vt 0.454546 0.314921
vt 0.409092 0.393651
vt 0.363637 0.314921
vt 0.500000 0.393651
vt 0.454546 0.472382
vt 0.486231 0.369802
vt 0.463493 0.330418
vt 0.433335 0.365947
vt 0.433335 0.365947
vt 0.511584 0.373588
vt 0.486231 0.369802
vt 0.528659 0.344013
vt 0.528659 0.344013
vt 0.464689 0.328396
vt 0.464689 0.328396
vt 0.681818 0.393651
vt 0.636364 0.472382
vt 0.863636 0.393651
vt 0.818182 0.472382
vt 0.909091 0.314921
vt 0.136365 0.393651
vt 0.090910 0.472382
vt 0.318182 0.393651
vt 0.272728 0.472382
vt 0.409092 0.236191
vt 0.500000 0.236191
vt 0.590909 0.236191
vt 0.681818 0.236191
vt 0.772727 0.236191
vt 0.863636 0.236191
vt 0.045455 0.236191
vt 0.136365 0.236191
vt 0.227273 0.236191
vt 0.318182 0.236191
vt 0.954545 0.236191
vt 0.375000 0.240782
vt 0.375000 0.240782
vt 0.538520 0.188921
vt 0.625000 0.136643
vt 0.625000 0.136643
vt 0.538520 0.188921
vt 0.625000 0.250000
vt 0.375000 0.250000
vt 0.443438 0.500000
vt 0.443438 0.500000
vt 0.417678 0.353021
vt 0.375000 0.265153
vt 0.375000 0.265153
vt 0.375000 0.265153
vt 0.417678 0.353021
vt 0.417678 0.353021
vt 0.443438 0.500000
vt 0.625000 0.500000
vt 0.625000 0.664134
vt 0.625000 0.664134
vt 0.452983 0.509424
vt 0.452983 0.509424
vt 0.140153 0.500000
vt 0.140154 0.500000
vt 0.131101 0.504958
vt 0.125000 0.509218
vt 0.125000 0.509218
vt 0.131101 0.504958
vt 0.125000 0.500000
vt 0.875000 0.613357
vt 0.875000 0.613357
vt 0.809559 0.606616
vt 0.739359 0.618377
vt 0.684264 0.640550
vt 0.625000 0.664134
vt 0.739359 0.618377
vt 0.739359 0.618377
vt 0.809559 0.606616
vt 0.875000 0.500000
vt 0.600407 0.333452
vt 0.562251 0.344013
vt 0.579326 0.373588
vt 0.607207 0.365321
vt 0.593417 0.358176
vt 0.609580 0.331955
vt 0.605304 0.333286
vt 0.463340 0.368565
vt 0.486231 0.369802
vt 0.463493 0.330418
vt 0.433335 0.365947
vt 0.511584 0.373588
vt 0.528659 0.344013
vt 0.464689 0.328396
vn 0.8735 0.0987 0.4766
vn -0.0114 -0.0215 0.9997
vn -0.9736 0.1673 0.1551
vn -0.3683 0.3080 -0.8772
vn 0.7538 0.3342 -0.5657
vn 0.3567 0.4803 -0.8012
vn 0.3636 0.4481 -0.8167
vn -0.0923 0.3440 -0.9344
vn -0.3492 0.5510 -0.7579
vn -0.2900 0.2958 -0.9102
vn -0.9201 0.1673 -0.3542
vn -0.9060 0.3731 0.1999
vn -0.9527 0.1883 0.2384
vn -0.7160 0.0157 0.6979
vn 0.1823 0.4803 0.8579
vn 0.2078 0.0324 0.9776
vn 0.4373 0.0081 0.8993
vn 0.8723 0.4803 0.0917
vn 0.9557 0.2768 0.1004
vn 0.8899 0.2979 -0.3454
vn 0.6002 -0.0161 -0.7997
vn 0.4065 -0.0371 -0.9129
vn 0.1814 -0.0009 -0.9834
vn -0.5651 0.0620 -0.8227
vn -0.7426 0.0367 -0.6687
vn -0.9005 0.0672 -0.4296
vn -0.9702 0.0672 0.2330
vn -0.8654 0.0367 0.4997
vn -0.6868 0.0672 0.7237
vn -0.0783 0.0672 0.9947
vn 0.2078 0.0367 0.9775
vn 0.4760 0.0672 0.8769
vn 0.8830 0.0561 0.4659
vn 0.9944 -0.0131 0.1045
vn 0.9912 0.0008 -0.1326
vn -0.2078 -0.0261 -0.9778
vn -0.9942 0.0243 -0.1045
vn -0.4066 0.0243 0.9133
vn 0.7429 0.0243 0.6689
vn 0.8640 -0.0681 -0.4988
vn -0.9456 0.1455 -0.2910
vn -0.9635 0.1722 -0.2048
vn -0.3338 0.0172 -0.9425
vn -0.5989 -0.1471 -0.7872
vn 0.8964 0.1709 -0.4090
vn 0.9209 0.1759 -0.3478
vn -0.2381 -0.4762 0.8465
vn -0.3825 -0.8913 -0.2435
vn 0.1205 0.8764 0.4664
vn 0.3683 -0.3080 0.8772
vn -0.3636 -0.4481 0.8167
vn 0.0923 -0.3440 0.9344
f 1/1/1 32/2/1 37/3/1
f 4/4/2 33/5/2 39/6/2
f 6/7/3 34/8/3 40/9/3
f 46/10/4 8/11/4 35/12/4 41/13/4 45/14/4 42/15/4 47/16/4 43/17/4 44/18/4 49/19/4 48/20/4
f 36/21/5 38/22/5 10/23/5
f 38/22/6 41/24/6 12/25/6
f 53/26/7 41/24/7 38/22/7 36/21/7 50/27/7 51/28/7 52/29/7
f 45/30/8 41/24/8 53/26/8 54/31/8
f 36/21/8 8/11/8 46/32/8 57/33/8 56/34/8 55/35/8 50/27/8
f 41/13/9 40/36/9 12/37/9
f 35/12/10 40/36/10 41/13/10
f 35/12/11 6/7/11 40/36/11
f 40/9/12 39/38/12 12/39/12
f 40/9/13 34/8/13 39/38/13
f 34/8/14 4/40/14 39/38/14
f 39/6/15 37/41/15 12/42/15
f 39/6/16 33/5/16 37/41/16
f 33/5/17 1/1/17 37/41/17
f 37/3/18 38/43/18 12/44/18
f 37/3/19 32/2/19 38/43/19
f 38/43/20 32/2/20 10/23/20
f 16/45/21 36/21/21 10/23/21
f 16/45/22 29/46/22 36/21/22
f 29/46/23 8/11/23 36/21/23
f 31/47/24 35/12/24 8/11/24
f 31/47/25 25/48/25 35/12/25
f 25/48/26 6/7/26 35/12/26
f 27/49/27 34/8/27 6/7/27
f 27/49/28 22/50/28 34/8/28
f 22/50/29 4/40/29 34/8/29
f 23/51/30 33/5/30 4/4/30
f 23/51/31 17/52/31 33/5/31
f 17/52/32 1/1/32 33/5/32
f 19/53/33 32/2/33 1/1/33
f 19/53/34 13/54/34 32/2/34
f 13/54/35 10/23/35 32/2/35
f 29/46/36 31/47/36 8/11/36
f 25/48/37 27/49/37 6/7/37
f 22/50/38 23/55/38 4/40/38
f 17/52/39 19/53/39 1/1/39
f 13/54/40 16/45/40 10/23/40
f 43/56/41 11/57/41 9/58/41 7/59/41 42/60/41 47/61/41
f 47/61/42 42/60/42 3/62/42 2/63/42 43/56/42
f 55/64/43 18/65/43 15/66/43 14/67/43 49/68/43 48/69/43 46/70/43 57/71/43 56/72/43
f 2/63/44 3/62/44 5/73/44 55/64/44 56/72/44 57/71/44 46/70/44 48/69/44 49/68/44
f 51/74/45 21/75/45 20/76/45 18/65/45 55/64/45 50/77/45
f 55/64/46 5/73/46 51/74/46 50/77/46
f 49/78/47 14/79/47 24/80/47 11/81/47 43/82/47 44/83/47
f 44/83/48 43/82/48 2/84/48 49/78/48
f 42/85/7 7/86/7 28/87/7 30/88/7 26/89/7 21/75/7 51/74/7 52/90/7 53/91/7 54/92/7 45/93/7
f 51/74/49 5/73/49 3/94/49 42/85/49 45/93/49 54/92/49 53/91/49 52/90/49
f 14/95/50 15/96/50 28/97/50 7/98/50 9/99/50 11/100/50 24/101/50
f 26/102/51 30/103/51 20/104/51 21/105/51
f 28/106/52 15/107/52 18/108/52 20/104/52 30/103/52
